<svg id="telegram" width="20" height="20" viewBox="0 0 20 20" fill="none" xmlns="http://www.w3.org/2000/svg">
<rect width="20" height="20" rx="10" fill="#F96878"/>
<path d="M6.63502 10.2358L5.90992 11.0049V13H4.79811V6.60156H5.90992V9.60303L6.52516 8.84277L8.39723 6.60156H9.74195L7.36451 9.43604L9.87818 13H8.55982L6.63502 10.2358ZM11.8577 10.6226V13H10.7458V6.60156H13.1936C13.9084 6.60156 14.4753 6.7876 14.8943 7.15967C15.3162 7.53174 15.5271 8.02393 15.5271 8.63623C15.5271 9.26318 15.3205 9.75098 14.9075 10.0996C14.4973 10.4482 13.9216 10.6226 13.1804 10.6226H11.8577ZM11.8577 9.73047H13.1936C13.5891 9.73047 13.8909 9.63818 14.0989 9.45361C14.3069 9.26611 14.4109 8.99658 14.4109 8.64502C14.4109 8.29932 14.3054 8.02393 14.0945 7.81885C13.8835 7.61084 13.5935 7.50391 13.2244 7.49805H11.8577V9.73047Z" fill="white"/>
</svg>
