<svg id="telegram" width="20" height="20" fill="none" xmlns="http://www.w3.org/2000/svg"><rect width="20" height="20" rx="10" fill="#F96878"/><path d="M6.635 10.236l-.725.769V13H4.798V6.602H5.91v3.001l.615-.76 1.872-2.241h1.345L7.365 9.436 9.878 13H8.56l-1.925-2.764zm5.223.387V13h-1.112V6.602h2.448c.714 0 1.281.186 1.7.558.422.372.633.864.633 1.476 0 .627-.207 1.115-.62 1.464-.41.348-.985.523-1.727.523h-1.322zm0-.893h1.336c.395 0 .697-.092.905-.276.208-.188.312-.457.312-.809 0-.346-.106-.621-.316-.826-.212-.208-.502-.315-.87-.32h-1.367V9.73z" fill="#fff"/></svg>